<?xml version="1.0" standalone="no"?>
<!DOCTYPE svg PUBLIC "-//W3C//DTD SVG 20010904//EN"
 "http://www.w3.org/TR/2001/REC-SVG-20010904/DTD/svg10.dtd">
<svg version="1.0" xmlns="http://www.w3.org/2000/svg"
 width="3684.000000pt" height="2097.000000pt" viewBox="0 0 3684.000000 2097.000000"
 preserveAspectRatio="xMidYMid meet">
<metadata>
Created by potrace 1.10, written by Peter Selinger 2001-2011
</metadata>
<g transform="translate(0.000000,2097.000000) scale(0.100000,-0.100000)"
fill="#000000" stroke="none">
<path d="M9607 20073 c-4 -3 -67 -9 -141 -13 -84 -5 -151 -14 -182 -25 -62
-21 -210 -92 -226 -108 -7 -7 -30 -23 -50 -37 -50 -33 -204 -191 -259 -265
-100 -133 -210 -327 -274 -480 -9 -22 -22 -53 -30 -70 -18 -41 -71 -191 -85
-240 -6 -22 -18 -62 -26 -90 -77 -253 -124 -532 -153 -900 -23 -280 -25 -400
-11 -560 5 -60 12 -167 16 -236 l6 -125 -138 -124 c-77 -67 -175 -155 -219
-195 -44 -40 -116 -103 -160 -141 -44 -38 -100 -87 -124 -109 -54 -49 -48 -44
-151 -135 -47 -41 -94 -83 -104 -92 -11 -10 -23 -18 -26 -18 -11 0 -72 21
-107 36 -17 8 -36 14 -42 14 -6 0 -19 4 -29 10 -9 5 -60 26 -112 45 -113 43
-164 63 -207 81 -17 8 -38 14 -46 14 -9 0 -18 4 -22 9 -3 5 -20 13 -37 17 -18
3 -39 10 -48 15 -34 20 -257 99 -278 99 -33 0 -76 -25 -89 -52 -7 -12 -26 -54
-44 -93 -17 -38 -44 -98 -60 -132 -16 -35 -42 -91 -58 -125 -16 -35 -43 -94
-61 -133 -18 -38 -48 -104 -67 -145 -44 -94 -83 -178 -118 -255 -15 -33 -42
-91 -60 -130 -18 -38 -46 -99 -63 -135 -61 -133 -96 -207 -134 -290 -22 -47
-48 -103 -58 -125 -73 -159 -92 -193 -106 -199 -9 -3 -36 1 -60 9 -25 8 -54
15 -65 15 -12 0 -44 6 -72 14 -29 7 -88 21 -132 31 -44 9 -98 21 -119 27 -21
5 -60 14 -85 18 -25 5 -77 16 -116 25 -138 32 -191 44 -268 59 -44 9 -82 18
-86 21 -4 2 -32 9 -62 14 -54 10 -120 25 -254 55 -38 9 -103 23 -143 31 -41 8
-77 17 -81 20 -17 10 -146 25 -171 20 -19 -4 -295 -273 -881 -855 l-854 -850
200 0 201 0 704 702 c672 668 707 702 741 701 19 0 64 -7 100 -16 35 -8 100
-22 144 -31 44 -9 103 -23 131 -31 28 -8 61 -15 73 -15 12 0 43 -6 69 -14 26
-8 83 -22 127 -31 44 -9 107 -22 140 -30 33 -7 96 -21 140 -30 44 -9 96 -21
115 -26 19 -5 55 -14 80 -19 67 -14 169 -36 220 -48 25 -6 81 -18 125 -27 44
-9 94 -21 110 -26 17 -6 64 -13 105 -16 109 -8 103 -14 238 277 16 36 43 94
60 130 16 36 41 90 55 120 13 30 40 89 60 130 19 41 49 105 66 143 17 37 45
96 61 132 17 36 44 94 60 130 17 36 44 95 61 133 17 37 44 95 60 130 16 34 43
92 60 130 17 37 47 101 66 142 89 194 88 194 170 161 32 -12 75 -29 96 -37 80
-30 123 -47 154 -60 17 -8 38 -14 46 -14 9 0 18 -4 22 -9 3 -5 20 -13 37 -17
18 -3 39 -10 48 -15 8 -5 58 -25 110 -44 151 -57 163 -62 207 -80 59 -24 113
-16 161 26 51 44 182 161 202 179 9 8 52 46 96 85 43 38 84 74 90 80 6 5 44
40 85 76 41 36 139 123 218 194 l144 128 19 -22 c10 -13 18 -32 18 -44 0 -24
39 -196 50 -217 4 -9 11 -31 14 -50 4 -19 11 -44 15 -55 5 -11 19 -54 31 -95
13 -41 27 -79 31 -85 5 -5 9 -15 9 -23 0 -8 6 -28 14 -45 8 -18 27 -61 41 -97
72 -174 179 -362 288 -505 54 -69 190 -205 252 -251 33 -24 65 -48 70 -52 56
-43 194 -96 305 -116 243 -43 419 -23 615 71 85 41 91 44 185 114 139 104 253
228 364 394 96 144 143 228 209 378 13 28 30 66 37 82 41 91 115 317 154 470
29 114 61 275 86 430 47 295 47 955 0 1250 -44 272 -93 484 -157 670 -14 39
-27 79 -30 90 -17 67 -131 321 -195 435 -36 63 -153 243 -171 262 -7 8 -36 43
-66 78 -80 96 -211 214 -295 268 -62 39 -212 112 -231 112 -9 0 -25 5 -36 11
-21 11 -176 39 -220 39 -14 0 -29 -3 -32 -7z m-92 -373 c75 -17 126 -30 143
-39 9 -4 35 -17 57 -27 126 -60 304 -222 403 -367 28 -43 52 -80 52 -82 0 -2
12 -21 26 -42 39 -58 134 -258 169 -358 10 -27 24 -64 31 -82 8 -17 14 -40 14
-51 0 -12 4 -23 9 -26 5 -3 12 -23 15 -43 4 -21 13 -56 20 -78 26 -77 42 -149
66 -295 6 -36 16 -86 21 -111 12 -54 24 -183 40 -436 9 -140 9 -221 0 -350
-18 -255 -30 -383 -41 -433 -5 -25 -14 -74 -20 -110 -20 -119 -27 -155 -38
-195 -6 -22 -21 -78 -33 -125 -13 -47 -26 -89 -31 -95 -4 -5 -8 -18 -8 -28 0
-10 -6 -33 -14 -50 -7 -18 -21 -54 -31 -82 -47 -134 -135 -309 -222 -442 -147
-224 -334 -385 -523 -448 -65 -22 -246 -32 -305 -16 -116 29 -136 37 -224 86
-76 43 -227 179 -288 260 -60 79 -91 124 -119 170 -16 28 -35 59 -41 70 -13
20 -73 144 -98 200 -36 80 -45 104 -45 118 0 9 -4 18 -9 22 -5 3 -13 20 -17
38 -3 17 -12 45 -19 62 -7 16 -21 57 -30 90 -9 33 -22 76 -28 95 -11 37 -25
102 -33 160 -5 33 -1 39 46 83 28 26 55 47 60 47 14 0 32 -39 46 -100 11 -52
18 -72 50 -162 45 -122 91 -230 127 -293 80 -139 136 -215 217 -293 218 -212
487 -236 715 -63 116 88 190 178 292 356 62 110 129 286 186 495 68 247 99
624 79 962 -14 244 -36 400 -78 542 -8 26 -14 56 -14 66 0 10 -7 31 -15 46 -8
16 -15 36 -15 44 -1 14 -24 83 -48 143 -7 16 -12 32 -12 36 0 4 -26 59 -58
122 -56 110 -116 207 -162 259 -121 139 -198 195 -340 251 -54 21 -236 18
-291 -5 -62 -26 -113 -50 -119 -56 -3 -3 -24 -18 -47 -33 -43 -30 -129 -117
-173 -175 -14 -19 -30 -39 -36 -45 -9 -10 -41 -62 -81 -132 -25 -44 -70 -143
-97 -212 -47 -123 -66 -181 -82 -248 -31 -128 -45 -191 -50 -220 -3 -16 -11
-70 -19 -120 -26 -157 -36 -436 -24 -637 l11 -182 -50 -48 c-60 -57 -79 -60
-86 -15 -11 69 -21 279 -21 422 0 299 23 527 81 810 8 39 19 94 24 124 5 29
13 58 19 64 6 6 11 21 11 34 0 12 6 40 13 60 8 21 21 63 31 93 50 163 190 464
241 520 8 9 15 20 15 24 0 16 122 165 190 234 141 140 256 202 455 245 35 8
119 6 160 -3z m-126 -952 c118 -57 242 -199 323 -368 52 -109 68 -146 68 -162
0 -8 4 -18 9 -23 6 -6 14 -28 20 -50 6 -22 15 -60 21 -85 7 -25 16 -59 21 -77
6 -17 14 -67 20 -110 5 -43 14 -116 20 -163 13 -101 6 -462 -9 -535 -6 -27
-16 -79 -22 -115 -16 -97 -25 -141 -38 -180 -6 -19 -21 -63 -32 -98 -11 -34
-24 -70 -29 -80 -5 -9 -26 -53 -47 -97 -100 -211 -240 -353 -394 -401 -176
-54 -381 52 -523 271 -85 132 -177 351 -177 422 0 27 11 42 80 102 44 39 87
71 95 71 13 0 55 -75 55 -97 0 -31 97 -180 144 -220 86 -76 193 -96 283 -52
92 45 202 206 252 369 41 137 54 234 54 420 0 214 -24 363 -79 487 -8 17 -14
36 -14 42 0 21 -90 158 -132 199 -53 52 -133 92 -187 92 -44 0 -131 -37 -171
-73 -117 -104 -213 -337 -239 -582 -8 -74 -12 -81 -56 -89 -19 -4 -51 -14 -72
-22 l-37 -16 25 -19 c13 -10 33 -21 44 -25 50 -14 85 -36 85 -52 0 -27 -149
-157 -179 -157 l-26 0 -6 130 c-7 166 15 453 41 540 8 28 19 73 41 175 5 24
14 49 19 54 6 6 10 18 10 27 0 45 112 267 182 360 65 86 114 129 201 178 76
42 120 51 217 45 57 -4 91 -13 139 -36z"/>
<path d="M5643 18308 c-16 -22 -36 -96 -30 -112 10 -25 38 -32 49 -13 5 10 16
17 25 17 9 0 26 10 38 23 13 12 33 29 46 38 24 17 24 17 5 38 -15 16 -31 21
-71 21 -30 0 -57 -5 -62 -12z"/>
<path d="M5163 18244 c-40 -20 -48 -61 -10 -49 12 4 49 9 83 12 50 4 70 1 115
-20 30 -14 69 -41 88 -60 l34 -36 -44 -19 c-24 -11 -99 -43 -166 -71 -220 -92
-276 -125 -348 -203 -36 -39 -78 -90 -94 -112 -152 -223 -150 -219 -126 -246
10 -11 30 -20 45 -20 23 0 41 18 116 118 48 64 103 133 122 153 18 20 39 43
45 51 22 28 82 65 132 83 49 17 86 32 153 61 34 15 65 18 75 8 11 -12 -80
-167 -133 -224 -40 -44 -69 -106 -70 -146 0 -20 11 -45 30 -69 17 -21 30 -47
30 -58 0 -30 38 -85 79 -112 20 -14 98 -87 175 -162 157 -156 265 -288 247
-306 -7 -7 -6 -14 6 -23 14 -10 15 -16 6 -35 -20 -43 -133 -166 -163 -179 -17
-7 -30 -19 -30 -27 0 -8 -39 -51 -87 -96 -144 -135 -233 -232 -233 -255 0 -6
9 -13 19 -17 11 -3 23 -16 27 -27 10 -32 94 -118 115 -118 23 0 26 36 5 65 -7
11 -16 32 -20 48 -5 22 -2 29 16 36 26 11 235 187 346 292 40 38 87 79 104 92
16 12 36 36 44 52 8 17 25 49 39 72 62 104 24 217 -159 483 -40 58 -47 73 -35
81 8 5 89 9 180 9 l166 0 69 -50 c37 -27 147 -128 244 -225 97 -96 181 -175
186 -175 6 0 25 -16 44 -35 19 -19 37 -35 41 -35 17 0 159 152 159 170 0 28
-31 26 -80 -5 -22 -14 -45 -25 -52 -24 -7 0 -30 21 -52 47 -126 154 -426 463
-476 491 -34 20 -185 39 -365 47 -82 4 -156 10 -162 13 -9 5 -6 14 10 31 29
31 58 94 89 190 15 48 29 76 40 78 8 2 44 -19 79 -45 36 -26 82 -57 104 -67
22 -10 48 -23 57 -27 60 -30 177 8 305 96 126 88 303 248 303 275 0 18 -37 80
-47 80 -5 0 -19 -10 -33 -23 -53 -49 -228 -193 -295 -242 -89 -66 -127 -79
-174 -64 -67 22 -93 43 -266 210 -141 136 -165 149 -249 134 -36 -7 -50 1
-138 75 -10 8 -42 27 -71 42 -61 33 -142 37 -194 12z"/>
<path d="M4446 17388 c-47 -75 -78 -149 -72 -174 3 -12 17 -29 31 -38 33 -22
236 -127 297 -154 46 -20 48 -20 71 -2 30 23 109 184 105 212 -2 13 -26 32
-68 55 -36 19 -74 44 -86 54 -11 10 -28 19 -37 19 -9 0 -18 4 -21 9 -3 5 -18
12 -32 15 -14 4 -49 18 -77 31 -28 14 -57 25 -64 25 -7 0 -28 -24 -47 -52z"/>
</g>
</svg>
